<svg width="119" height="41" viewBox="0 0 119 41" fill="none" xmlns="http://www.w3.org/2000/svg">
<path d="M12.04 40.824C10.8827 40.824 9.856 40.5253 8.96 39.928C8.10134 39.3307 7.69067 38.4347 7.728 37.24C7.80267 35.1493 7.952 32.8347 8.176 30.296C8.43734 27.7573 8.736 25.1813 9.072 22.568C9.408 19.9173 9.744 17.3787 10.08 14.952C10.4533 12.5253 10.7893 10.36 11.088 8.45601C10.416 8.38134 9.76267 8.32534 9.128 8.288C8.49334 8.25067 7.91467 8.23201 7.392 8.23201C5.824 8.23201 4.40534 8.38134 3.136 8.68C1.904 8.97867 0.858669 9.50134 1.78814e-06 10.248C1.78814e-06 7.896 0.186668 5.992 0.560002 4.536C0.970668 3.04267 1.69867 1.96001 2.744 1.288C3.82667 0.616005 5.39467 0.280005 7.448 0.280005C8.94134 0.280005 10.6027 0.410671 12.432 0.672003C14.2987 0.896004 16.184 1.13867 18.088 1.4C19.992 1.66134 21.7653 1.79201 23.408 1.79201C24.752 1.79201 25.9467 1.66134 26.992 1.4C28.0747 1.13867 28.896 0.672005 29.456 4.76837e-06C30.2773 0.261337 30.912 0.840004 31.36 1.73601C31.808 2.59467 32.032 3.54667 32.032 4.59201C32.032 5.52534 31.8267 6.44 31.416 7.336C31.0053 8.19467 30.352 8.92267 29.456 9.52001C28.56 10.08 27.3467 10.36 25.816 10.36C25.1067 10.36 24.2293 10.304 23.184 10.192C22.176 10.0427 21.0933 9.89334 19.936 9.74401C19.5253 11.984 19.096 14.672 18.648 17.808C18.2373 20.9067 17.8827 24.248 17.584 27.832C17.3227 31.416 17.1547 35.056 17.08 38.752C16.408 39.4613 15.6053 39.984 14.672 40.32C13.776 40.656 12.8987 40.824 12.04 40.824ZM37.6819 40.992C34.8819 40.992 32.5672 40.432 30.7379 39.312C28.9085 38.192 27.5459 36.7173 26.6499 34.888C25.7912 33.0213 25.3619 31.0427 25.3619 28.952C25.3619 26.9733 25.7165 24.9947 26.4259 23.016C27.1725 21.0373 28.2365 19.2453 29.6179 17.64C31.0365 15.9973 32.7539 14.6907 34.7699 13.72C36.7859 12.712 39.1005 12.208 41.7139 12.208C44.5139 12.208 46.8099 12.7867 48.6019 13.944C50.4312 15.064 51.7752 16.5573 52.6339 18.424C53.5299 20.2907 53.9779 22.288 53.9779 24.416C53.9779 26.3573 53.6232 28.3173 52.9139 30.296C52.2045 32.2373 51.1405 34.0293 49.7219 35.672C48.3405 37.2773 46.6419 38.5653 44.6259 39.536C42.6099 40.5067 40.2952 40.992 37.6819 40.992ZM39.1939 36.232C40.2019 36.232 41.0419 35.7093 41.7139 34.664C42.3859 33.6187 42.8899 32.2933 43.2259 30.688C43.5619 29.0453 43.7299 27.384 43.7299 25.704C43.7299 24.2107 43.5805 22.8107 43.2819 21.504C43.0205 20.16 42.6099 19.0773 42.0499 18.256C41.4899 17.3973 40.7619 16.968 39.8659 16.968C38.8952 16.968 38.0552 17.4907 37.3459 18.536C36.6739 19.5813 36.1699 20.9067 35.8339 22.512C35.4979 24.1173 35.3299 25.7787 35.3299 27.496C35.3299 28.9893 35.4605 30.408 35.7219 31.752C36.0205 33.0587 36.4499 34.1413 37.0099 35C37.5699 35.8213 38.2979 36.232 39.1939 36.232ZM65.0913 40.824C63.7473 40.824 62.4779 40.3573 61.2833 39.424C60.1259 38.4907 59.1739 37.128 58.4273 35.336C57.7179 33.544 57.3633 31.3787 57.3633 28.84C57.3633 26.2267 57.7366 23.8933 58.4833 21.84C59.2299 19.7867 60.2006 18.0507 61.3953 16.632C62.6273 15.176 63.9526 14.0747 65.3713 13.328C66.8273 12.5813 68.2459 12.208 69.6273 12.208C71.1579 12.208 72.5206 12.6933 73.7153 13.664C74.9099 14.5973 75.7313 16.072 76.1793 18.088C76.5153 16.2213 76.7953 14.448 77.0193 12.768C77.2806 11.0507 77.4113 9.53867 77.4113 8.23201C77.4113 6.51467 77.1873 5.264 76.7393 4.48V4.144C77.5979 3.17334 78.5313 2.464 79.5393 2.01601C80.5846 1.53067 81.5739 1.288 82.5073 1.288C83.7393 1.288 84.7846 1.68 85.6433 2.464C86.5019 3.21067 86.9313 4.29334 86.9313 5.712C86.9313 6.496 86.8006 7.65334 86.5393 9.184C86.2779 10.7147 85.9606 12.4693 85.5873 14.448C85.2139 16.3893 84.8219 18.4053 84.4113 20.496C84.0379 22.5493 83.7206 24.528 83.4593 26.432C83.1979 28.2987 83.0673 29.9227 83.0673 31.304C83.0673 32.4613 83.1793 33.3947 83.4033 34.104C83.6646 34.776 84.0753 35.112 84.6353 35.112C85.0459 35.112 85.4566 34.9813 85.8673 34.72C86.3153 34.4213 86.6139 34.0853 86.7633 33.712L87.1553 33.992C87.1553 35.224 86.7633 36.3627 85.9793 37.408C85.1953 38.416 84.2059 39.2373 83.0113 39.872C81.8166 40.5067 80.5846 40.824 79.3153 40.824C77.9339 40.824 76.8326 40.4507 76.0113 39.704C75.2273 38.92 74.6673 37.9307 74.3313 36.736C73.9953 35.5413 73.8086 34.3093 73.7713 33.04C72.6139 35.728 71.2513 37.7067 69.6833 38.976C68.1526 40.208 66.6219 40.824 65.0913 40.824ZM68.8433 33.712C69.8139 33.712 70.8966 32.8347 72.0913 31.08C73.2859 29.3253 74.3313 26.768 75.2273 23.408L75.5633 21.672C74.9659 20.2907 74.3126 19.32 73.6033 18.76C72.9313 18.1627 72.2779 17.864 71.6433 17.864C70.7099 17.864 69.8326 18.3867 69.0113 19.432C68.1899 20.44 67.5179 21.7467 66.9953 23.352C66.5099 24.92 66.2673 26.5813 66.2673 28.336C66.2673 30.016 66.5099 31.3413 66.9953 32.312C67.4806 33.2453 68.0966 33.712 68.8433 33.712ZM101.776 40.992C98.9756 40.992 96.661 40.432 94.8316 39.312C93.0023 38.192 91.6396 36.7173 90.7436 34.888C89.885 33.0213 89.4556 31.0427 89.4556 28.952C89.4556 26.9733 89.8103 24.9947 90.5196 23.016C91.2663 21.0373 92.3303 19.2453 93.7116 17.64C95.1303 15.9973 96.8476 14.6907 98.8636 13.72C100.88 12.712 103.194 12.208 105.808 12.208C108.608 12.208 110.904 12.7867 112.696 13.944C114.525 15.064 115.869 16.5573 116.728 18.424C117.624 20.2907 118.072 22.288 118.072 24.416C118.072 26.3573 117.717 28.3173 117.008 30.296C116.298 32.2373 115.234 34.0293 113.816 35.672C112.434 37.2773 110.736 38.5653 108.72 39.536C106.704 40.5067 104.389 40.992 101.776 40.992ZM103.288 36.232C104.296 36.232 105.136 35.7093 105.808 34.664C106.48 33.6187 106.984 32.2933 107.32 30.688C107.656 29.0453 107.824 27.384 107.824 25.704C107.824 24.2107 107.674 22.8107 107.376 21.504C107.114 20.16 106.704 19.0773 106.144 18.256C105.584 17.3973 104.856 16.968 103.96 16.968C102.989 16.968 102.149 17.4907 101.44 18.536C100.768 19.5813 100.264 20.9067 99.9276 22.512C99.5916 24.1173 99.4236 25.7787 99.4236 27.496C99.4236 28.9893 99.5543 30.408 99.8156 31.752C100.114 33.0587 100.544 34.1413 101.104 35C101.664 35.8213 102.392 36.232 103.288 36.232Z" fill="#2ECAA7"/>
</svg>
