<svg width="55" height="55" viewBox="0 0 55 55" fill="none" xmlns="http://www.w3.org/2000/svg">
<path d="M9.29575 6.85501C9.39895 6.8546 9.50214 6.85413 9.60533 6.85361C9.88346 6.85241 10.1616 6.85208 10.4397 6.85199C10.6139 6.85189 10.7881 6.8516 10.9623 6.85123C11.5712 6.84996 12.1801 6.8494 12.789 6.84951C13.3547 6.84959 13.9205 6.84814 14.4862 6.84597C14.9737 6.84417 15.4612 6.84343 15.9487 6.84352C16.2391 6.84356 16.5295 6.84317 16.8199 6.84171C17.093 6.84037 17.3661 6.84037 17.6393 6.84137C17.739 6.84151 17.8386 6.84119 17.9383 6.84036C18.6876 6.83448 19.4008 6.90271 19.9676 7.44083C20.5397 8.08873 20.6864 8.71596 20.6387 9.56198C20.6071 9.86517 20.4983 10.1183 20.35 10.3812C20.3259 10.4255 20.3018 10.4697 20.277 10.5152C19.9633 11.0173 19.4025 11.338 18.8375 11.4812C18.5177 11.511 18.1993 11.5092 17.8783 11.5077C17.7819 11.508 17.6855 11.5083 17.5891 11.5088C17.3824 11.5096 17.1757 11.5098 16.969 11.5095C16.6416 11.509 16.3141 11.5101 15.9867 11.5114C15.2912 11.514 14.5958 11.5149 13.9004 11.5156C13.1502 11.5164 12.3999 11.5174 11.6497 11.5205C11.3248 11.5217 11 11.522 10.6751 11.5215C10.4722 11.5214 10.2693 11.5222 10.0664 11.5231C9.92882 11.5235 9.79128 11.5229 9.65375 11.5223C8.87437 11.5275 8.21627 11.6238 7.63125 12.1687C7.02624 12.7875 6.93254 13.4837 6.93491 14.317C6.93473 14.3989 6.93473 14.3989 6.93454 14.4825C6.93422 14.665 6.93439 14.8474 6.93456 15.0299C6.93443 15.1623 6.93427 15.2947 6.93409 15.427C6.93367 15.7904 6.93367 16.1537 6.93376 16.5171C6.93377 16.9091 6.93339 17.3012 6.93306 17.6932C6.93249 18.4611 6.9323 19.229 6.93227 19.9969C6.93223 20.621 6.93209 21.2452 6.93187 21.8693C6.93137 23.351 6.93094 24.8327 6.93098 26.3144C6.93098 26.3617 6.93098 26.4091 6.93098 26.4579C6.93099 26.698 6.931 26.9381 6.931 27.1781C6.931 27.2258 6.93101 27.2735 6.93101 27.3226C6.93101 27.419 6.93101 27.5155 6.93101 27.6119C6.93106 29.112 6.93054 30.612 6.9296 32.1121C6.92854 33.798 6.92795 35.4839 6.92802 37.1698C6.92804 38.0623 6.92785 38.9547 6.92711 39.8471C6.92649 40.6069 6.92634 41.3667 6.9268 42.1265C6.92703 42.5141 6.92703 42.9017 6.92643 43.2893C6.92589 43.6443 6.92599 43.9992 6.92659 44.3542C6.9267 44.4825 6.92657 44.6107 6.92619 44.739C6.91408 46.1876 6.91408 46.1876 7.60601 47.4249C8.21009 47.9854 8.91671 48.0673 9.71054 48.0651C9.76513 48.0652 9.81973 48.0653 9.87598 48.0654C10.0584 48.0658 10.2408 48.0656 10.4232 48.0654C10.5555 48.0656 10.6879 48.0657 10.8202 48.0659C11.1834 48.0663 11.5466 48.0663 11.9099 48.0662C12.3017 48.0662 12.6936 48.0666 13.0855 48.0669C13.8532 48.0675 14.6208 48.0677 15.3884 48.0677C16.0124 48.0678 16.6364 48.0679 17.2604 48.0681C18.7418 48.0686 20.2232 48.069 21.7046 48.069C21.7519 48.069 21.7993 48.069 21.8481 48.069C22.0881 48.069 22.3282 48.069 22.5682 48.069C22.6397 48.069 22.6397 48.069 22.7126 48.069C22.809 48.069 22.9054 48.069 23.0018 48.069C24.5015 48.0689 26.0011 48.0694 27.5007 48.0704C29.1862 48.0714 30.8716 48.072 32.5571 48.072C33.4493 48.0719 34.3415 48.0721 35.2336 48.0729C35.9932 48.0735 36.7528 48.0737 37.5124 48.0732C37.8999 48.073 38.2874 48.073 38.6748 48.0736C39.0298 48.0741 39.3847 48.074 39.7397 48.0734C39.8678 48.0733 39.996 48.0734 40.1241 48.0738C41.5952 48.0951 41.5952 48.0951 42.8315 47.3763C43.2977 46.8818 43.4586 46.3242 43.4586 45.6509C43.4587 45.5683 43.4589 45.4857 43.4591 45.4006C43.4589 45.2656 43.4589 45.2656 43.4587 45.1278C43.4588 45.0315 43.4589 44.9353 43.459 44.839C43.4594 44.632 43.4595 44.425 43.4595 44.2179C43.4596 43.8899 43.4605 43.5619 43.4615 43.2338C43.4617 43.1784 43.4619 43.1229 43.4621 43.0658C43.4624 42.9524 43.4628 42.839 43.4632 42.7256C43.4656 41.9622 43.4674 41.1989 43.4672 40.4356C43.4671 39.9202 43.4682 39.4049 43.4707 38.8896C43.472 38.6172 43.4726 38.345 43.4718 38.0726C43.471 37.816 43.4718 37.5595 43.4738 37.3029C43.4745 37.1651 43.4735 37.0273 43.4724 36.8896C43.4799 36.2272 43.6191 35.6732 44.0121 35.1312C44.6511 34.5331 45.1966 34.3389 46.0692 34.3559C46.6659 34.3983 47.1763 34.6109 47.575 35.0625C47.9364 35.5284 48.1418 35.9407 48.1429 36.541C48.1434 36.6297 48.1439 36.7184 48.1444 36.8099C48.1442 36.9074 48.1441 37.0049 48.1439 37.1024C48.1442 37.2058 48.1445 37.3092 48.145 37.4125C48.1459 37.6928 48.1459 37.9731 48.1457 38.2534C48.1457 38.4881 48.146 38.7228 48.1463 38.9575C48.1471 39.512 48.1471 40.0665 48.1467 40.621C48.1463 41.1909 48.1471 41.7607 48.1486 42.3306C48.1498 42.8213 48.1502 43.3121 48.15 43.8028C48.1499 44.0953 48.15 44.3877 48.151 44.6801C48.1519 44.9557 48.1517 45.2314 48.1508 45.507C48.1507 45.6074 48.1509 45.7077 48.1514 45.8081C48.1562 46.7063 48.0426 47.5664 47.7039 48.4043C47.6834 48.4558 47.6629 48.5073 47.6417 48.5603C47.3051 49.3702 46.8117 50.0414 46.2 50.6687C46.1404 50.7311 46.0809 50.7935 46.0195 50.8578C45.9657 50.9088 45.9118 50.9599 45.8563 51.0125C45.8253 51.0423 45.7944 51.072 45.7625 51.1027C45.1896 51.6259 44.5241 52.0219 43.8066 52.3101C43.7385 52.3384 43.7385 52.3384 43.6689 52.3672C42.6816 52.7411 41.6376 52.7614 40.5968 52.7574C40.4579 52.7577 40.319 52.758 40.1801 52.7584C39.8016 52.7593 39.423 52.7588 39.0445 52.7582C38.635 52.7577 38.2256 52.7585 37.8161 52.759C37.0614 52.7599 36.3068 52.7598 35.5521 52.7592C34.8548 52.7587 34.1575 52.7586 33.4602 52.7588C33.3906 52.7589 33.3906 52.7589 33.3196 52.7589C33.1314 52.7589 32.9431 52.759 32.7549 52.7591C30.9913 52.7597 29.2278 52.7591 27.4642 52.758C25.8994 52.757 24.3346 52.7571 22.7698 52.7581C21.0092 52.7592 19.2486 52.7597 17.488 52.759C17.3001 52.759 17.1123 52.7589 16.9244 52.7588C16.8781 52.7588 16.8319 52.7588 16.7842 52.7588C16.0875 52.7586 15.3908 52.7588 14.6941 52.7593C13.9015 52.7599 13.109 52.7598 12.3164 52.7587C11.9123 52.7581 11.5082 52.7579 11.1042 52.7586C10.7337 52.7592 10.3633 52.7589 9.99289 52.7578C9.85943 52.7575 9.72597 52.7577 9.59252 52.7582C7.70054 52.7647 5.97256 52.2973 4.5375 51.0125C4.44538 50.9301 4.44538 50.9301 4.35139 50.846C3.13744 49.6982 2.3139 48.0224 2.25997 46.3384C2.25954 46.236 2.25948 46.1337 2.25971 46.0313C2.25957 45.9743 2.25943 45.9173 2.25929 45.8586C2.2589 45.6677 2.259 45.4767 2.25909 45.2857C2.25892 45.1474 2.25871 45.0091 2.25848 44.8708C2.25792 44.4907 2.2578 44.1106 2.25775 43.7305C2.25762 43.3206 2.2571 42.9106 2.25664 42.5007C2.25566 41.5575 2.25526 40.6143 2.25494 39.6711C2.25478 39.2047 2.25453 38.7383 2.25427 38.2719C2.25339 36.6746 2.25265 35.0773 2.25242 33.4799C2.2524 33.3797 2.25239 33.2795 2.25237 33.1792C2.25236 33.0788 2.25234 32.9783 2.25233 32.8778C2.2523 32.6762 2.25226 32.4747 2.25223 32.2731C2.25223 32.2232 2.25222 32.1732 2.25221 32.1217C2.25196 30.502 2.25087 28.8824 2.24926 27.2627C2.24757 25.5492 2.24663 23.8357 2.24655 22.1222C2.24654 21.9339 2.24652 21.7457 2.2465 21.5574C2.2465 21.5111 2.2465 21.4647 2.24649 21.4169C2.24641 20.6724 2.24566 19.9278 2.24466 19.1833C2.24367 18.4342 2.24346 17.6851 2.244 16.936C2.24427 16.5306 2.24421 16.1251 2.24324 15.7197C2.24236 15.3479 2.24245 14.9762 2.24328 14.6045C2.24341 14.4705 2.2432 14.3366 2.2426 14.2027C2.23371 12.0871 2.85106 10.2993 4.33555 8.76561C5.67165 7.42641 7.4355 6.85352 9.29575 6.85501Z" fill="#2ECAA7"/>
<path d="M42.0583 2.5914C42.2999 2.76325 42.5011 2.95007 42.7096 3.1595C42.7507 3.20024 42.7918 3.24098 42.8341 3.28295C42.9711 3.41888 43.1076 3.55529 43.244 3.69172C43.3424 3.78956 43.4408 3.88737 43.5392 3.98516C43.806 4.25047 44.0724 4.51622 44.3386 4.7821C44.5051 4.94833 44.6717 5.11448 44.8383 5.28059C45.4199 5.86051 46.0011 6.44082 46.582 7.02146C47.1228 7.56205 47.6646 8.10174 48.2067 8.64102C48.6727 9.1046 49.138 9.56883 49.6028 10.0336C49.8801 10.3109 50.1578 10.5879 50.4361 10.8643C50.698 11.1244 50.959 11.3852 51.2194 11.6468C51.3149 11.7423 51.4106 11.8376 51.5067 11.9326C52.1741 12.5928 52.73 13.1799 52.7527 14.1668C52.7456 14.8048 52.5852 15.3224 52.1361 15.7836C52.017 15.9066 51.9002 16.0304 51.7844 16.1563C51.1546 16.8404 50.5022 17.4999 49.8432 18.1557C49.6525 18.3455 49.462 18.5355 49.2716 18.7256C48.8681 19.1284 48.4644 19.5308 48.0605 19.9332C47.5904 20.4017 47.1204 20.8704 46.6506 21.3393C46.4637 21.5257 46.2767 21.7119 46.0896 21.8982C45.9745 22.0129 45.8595 22.1277 45.7445 22.2425C45.6931 22.2935 45.6417 22.3446 45.5888 22.3972C45.3611 22.6248 45.14 22.8544 44.9298 23.0983C44.6625 23.4082 44.3753 23.6958 44.0851 23.9841C44.0268 24.0423 43.9685 24.1005 43.9084 24.1605C43.75 24.3185 43.5915 24.4765 43.4329 24.6343C43.266 24.8005 43.0993 24.967 42.9326 25.1334C42.4735 25.5917 42.0141 26.0495 41.5547 26.5074C41.1333 26.9274 40.7119 27.3476 40.2909 27.768C40.1254 27.9332 39.9598 28.0983 39.7941 28.2632C39.6092 28.4473 39.4245 28.6316 39.2399 28.8159C39.1858 28.8696 39.1317 28.9234 39.076 28.9787C38.8419 29.2128 38.6138 29.4483 38.3977 29.6991C38.1266 30.0137 37.8346 30.3052 37.5402 30.5978C37.4804 30.6574 37.4207 30.7171 37.3591 30.7786C37.2302 30.9072 37.1012 31.0358 36.9721 31.1643C36.7676 31.3679 36.5633 31.5718 36.3591 31.7757C35.9257 32.2083 35.492 32.6407 35.0582 33.073C34.5895 33.5402 34.1209 34.0074 33.6526 34.4749C33.45 34.6772 33.2472 34.8794 33.0443 35.0813C32.888 35.237 32.732 35.3928 32.5759 35.5486C32.5203 35.6039 32.4647 35.6591 32.4074 35.7161C32.1725 35.9509 31.9453 36.1858 31.7331 36.4415C31.6748 36.5082 31.6164 36.575 31.5563 36.6437C31.5109 36.6437 31.4655 36.6437 31.4188 36.6437C31.4188 36.6891 31.4188 36.7345 31.4188 36.7812C31.3734 36.7812 31.328 36.7812 31.2813 36.7812C31.2601 36.8357 31.2601 36.8357 31.2386 36.8914C31.1027 37.1276 30.9198 37.3035 30.727 37.4945C30.6669 37.5542 30.6669 37.5542 30.6056 37.6151C29.7668 38.4321 28.9995 38.5643 27.8645 38.6144C27.7773 38.6184 27.6901 38.6225 27.6003 38.6266C27.3619 38.6377 27.1235 38.6484 26.885 38.659C26.6846 38.668 26.4841 38.6771 26.2837 38.6862C25.809 38.7077 25.3343 38.729 24.8596 38.7502C24.3745 38.7718 23.8893 38.7938 23.4042 38.8161C22.9847 38.8354 22.5652 38.8543 22.1456 38.8731C21.8964 38.8842 21.6473 38.8954 21.3981 38.907C20.7739 38.9358 20.1496 38.9613 19.525 38.9812C19.4017 38.9852 19.4017 38.9853 19.2759 38.9893C19.0416 38.996 18.8075 39.0004 18.5732 39.0039C18.5053 39.0059 18.4374 39.0079 18.3674 39.0099C17.659 39.0146 17.1396 38.7802 16.6311 38.294C16.1589 37.7976 16.002 37.2902 16.0052 36.616C16.0055 36.5367 16.0055 36.5367 16.0058 36.4558C16.0153 35.6091 16.0818 34.7641 16.1392 33.9196C16.1563 33.6658 16.1731 33.412 16.1899 33.1582C16.2182 32.7326 16.2468 32.3071 16.2756 31.8816C16.3087 31.3923 16.3412 30.903 16.3735 30.4136C16.4048 29.939 16.4365 29.4645 16.4684 28.9899C16.4819 28.7897 16.4952 28.5893 16.5084 28.389C16.5269 28.1086 16.5459 27.8282 16.5651 27.5479C16.573 27.4258 16.573 27.4258 16.5811 27.3013C16.6569 26.2107 16.722 25.3606 17.492 24.5414C17.5284 24.5024 17.5647 24.4634 17.6022 24.4233C17.9887 24.0108 18.3864 23.6096 18.7862 23.21C18.8668 23.1293 18.9473 23.0486 19.0277 22.9678C19.2433 22.7517 19.4591 22.5357 19.6749 22.3198C19.8099 22.1848 19.9449 22.0497 20.0798 21.9145C20.551 21.4427 21.0223 20.9711 21.4938 20.4997C21.9331 20.0604 22.372 19.6208 22.8107 19.181C23.1884 18.8024 23.5664 18.4241 23.9446 18.0459C24.1701 17.8205 24.3954 17.5949 24.6205 17.3691C24.8314 17.1575 25.0426 16.9463 25.254 16.7354C25.3317 16.6578 25.4093 16.5801 25.4867 16.5022C25.592 16.3965 25.6976 16.2911 25.8034 16.1858C25.8626 16.1267 25.9217 16.0675 25.9826 16.0065C26.125 15.8812 26.125 15.8812 26.2625 15.8812C26.2802 15.8412 26.2979 15.8011 26.3162 15.7599C26.4068 15.5939 26.5066 15.4813 26.6406 15.3484C26.6825 15.3062 26.7243 15.2641 26.7674 15.2206C26.8813 15.125 26.8813 15.125 27.0188 15.125C27.0351 15.0864 27.0514 15.0477 27.0682 15.0079C27.1762 14.8143 27.3085 14.6795 27.4656 14.5234C27.5475 14.441 27.5475 14.441 27.6311 14.3569C27.775 14.2312 27.775 14.2312 27.9125 14.2312C27.9288 14.1926 27.9451 14.154 27.9619 14.1142C28.0699 13.9206 28.2023 13.7858 28.3594 13.6297C28.4413 13.5473 28.4413 13.5473 28.5248 13.4632C28.6688 13.3375 28.6688 13.3375 28.8063 13.3375C28.8204 13.3006 28.8346 13.2638 28.8492 13.2258C28.9804 12.9993 29.1533 12.8154 29.3563 12.65C29.4016 12.65 29.447 12.65 29.4938 12.65C29.5078 12.6136 29.5218 12.5772 29.5362 12.5397C29.6718 12.3048 29.8601 12.1282 30.0516 11.939C30.0947 11.8959 30.1377 11.8529 30.1821 11.8085C30.3244 11.6662 30.4673 11.5245 30.6101 11.3827C30.7093 11.2837 30.8085 11.1848 30.9076 11.0858C31.1689 10.8251 31.4305 10.5648 31.6922 10.3046C31.9577 10.0405 32.2228 9.776 32.488 9.51153C32.9168 9.08394 33.3458 8.65659 33.7752 8.22955C34.1043 7.90216 34.4327 7.57417 34.7582 7.24318C34.8754 7.12474 34.9926 7.00631 35.1098 6.88789C35.1992 6.79676 35.1992 6.79676 35.2904 6.70379C35.3473 6.64641 35.4042 6.58902 35.4629 6.5299C35.5147 6.47737 35.5665 6.42483 35.6199 6.3707C35.75 6.25625 35.75 6.25625 35.8875 6.25625C35.912 6.19832 35.912 6.19832 35.9369 6.13922C36.0452 5.94509 36.1774 5.81101 36.3344 5.65361C36.3953 5.59246 36.4563 5.53131 36.5191 5.46831C36.5829 5.40503 36.6468 5.34175 36.7125 5.27656C36.7763 5.21222 36.8401 5.14788 36.9059 5.08159C36.9668 5.02079 37.0278 4.96 37.0906 4.89736C37.1466 4.8415 37.2026 4.78565 37.2604 4.7281C37.4 4.60624 37.4 4.60624 37.5375 4.60624C37.5538 4.56764 37.5702 4.52903 37.587 4.48926C37.7555 4.18658 38.0243 3.95912 38.2682 3.71632C38.3654 3.61935 38.4616 3.52145 38.5579 3.42353C39.5166 2.46417 40.7509 1.78865 42.0583 2.5914ZM40.4717 8.19475C40.4294 8.23728 40.3871 8.27981 40.3436 8.32363C40.2992 8.368 40.2548 8.41238 40.2091 8.4581C40.0614 8.60583 39.9139 8.7538 39.7665 8.90178C39.6642 9.00424 39.5618 9.10669 39.4594 9.20913C39.1891 9.47976 38.9189 9.75061 38.6488 10.0215C38.3749 10.2961 38.1008 10.5705 37.8267 10.8449C37.3833 11.2889 36.94 11.7331 36.4968 12.1774C36.4203 12.2542 36.3437 12.3309 36.2671 12.4076C36.1678 12.5072 36.0686 12.6069 35.9694 12.7067C35.8459 12.8293 35.7219 12.9405 35.5867 13.0496C35.356 13.2438 35.1667 13.4607 34.972 13.6901C34.8124 13.8675 34.6269 14.0098 34.4437 14.1625C34.3622 14.253 34.2821 14.3447 34.2031 14.4375C34.0035 14.6722 33.7869 14.8588 33.55 15.0562C33.4274 15.1895 33.3096 15.3258 33.1931 15.4644C33.0443 15.6342 32.8851 15.7908 32.725 15.95C32.6667 16.0083 32.6084 16.0666 32.5484 16.1266C24.0625 24.6125 24.0625 24.6125 23.8774 24.7975C23.7193 24.9557 23.5617 25.1143 23.4043 25.2731C23.2871 25.391 23.1699 25.5088 23.0527 25.6266C22.9931 25.6867 22.9335 25.7469 22.8721 25.8089C22.8152 25.8661 22.7583 25.9232 22.6996 25.9821C22.6478 26.0343 22.596 26.0865 22.5426 26.1402C22.4125 26.2625 22.4125 26.2625 22.275 26.3312C22.275 26.3766 22.275 26.422 22.275 26.4687C22.2296 26.4687 22.1842 26.4687 22.1375 26.4687C22.0273 26.5777 22.0273 26.5777 21.9141 26.718C21.6782 27.0003 21.6782 27.0003 21.5552 27.1034C21.2833 27.338 21.1941 27.5117 21.1662 27.8684C21.1627 27.9515 21.1627 27.9515 21.1591 28.0362C21.155 28.0957 21.1509 28.1551 21.1467 28.2163C21.1337 28.4119 21.1234 28.6075 21.1132 28.8033C21.1047 28.94 21.0961 29.0766 21.0873 29.2133C21.0645 29.5727 21.0441 29.9322 21.0242 30.2918C21.0035 30.6563 20.9805 31.0207 20.9577 31.385C20.9249 31.919 20.8926 32.4529 20.8626 32.9871C20.8594 33.042 20.8562 33.097 20.8528 33.1537C20.833 33.5155 20.8286 33.8752 20.8312 34.2375C20.9814 34.2317 21.1315 34.2259 21.2816 34.22C21.418 34.2147 21.5545 34.2095 21.691 34.2043C22.0789 34.1895 22.4667 34.1735 22.8544 34.1558C23.6564 34.1202 24.454 34.097 25.2568 34.1086C26.9085 34.1867 26.9085 34.1867 28.3301 33.4882C28.5364 33.2622 28.7203 33.0327 28.884 32.774C29.2272 32.2759 29.6685 31.8532 30.0961 31.4284C30.1544 31.3702 30.2127 31.312 30.2728 31.252C30.4312 31.094 30.5898 30.936 30.7484 30.7782C30.9153 30.6119 31.082 30.4455 31.2487 30.2791C31.7077 29.8208 32.1671 29.363 32.6265 28.9051C33.048 28.485 33.4693 28.0649 33.8904 27.6445C34.0559 27.4793 34.2214 27.3142 34.3871 27.1493C34.572 26.9652 34.7567 26.7809 34.9414 26.5966C35.0225 26.516 35.0225 26.516 35.1053 26.4338C35.3396 26.1994 35.568 25.9636 35.7844 25.7125C36.051 25.4031 36.3377 25.1162 36.6274 24.8284C36.6857 24.7702 36.744 24.712 36.8041 24.652C36.9625 24.494 37.121 24.336 37.2796 24.1782C37.4465 24.0119 37.6132 23.8455 37.7799 23.6791C38.239 23.2208 38.6984 22.763 39.1578 22.3051C39.5792 21.885 40.0006 21.4649 40.4216 21.0445C40.5871 20.8793 40.7527 20.7142 40.9184 20.5493C41.1033 20.3652 41.288 20.1809 41.4726 19.9966C41.5267 19.9428 41.5808 19.8891 41.6365 19.8338C41.9163 19.554 42.1829 19.2679 42.4412 18.9681C42.6279 18.7562 42.8272 18.5576 43.0274 18.3585C43.0717 18.3142 43.1161 18.2699 43.1617 18.2242C43.3063 18.0797 43.451 17.9354 43.5958 17.7912C43.6969 17.6903 43.7979 17.5893 43.899 17.4884C44.1634 17.2242 44.428 16.9602 44.6927 16.6963C44.9634 16.4264 45.2338 16.1562 45.5043 15.8861C46.0339 15.3572 46.5638 14.8285 47.0938 14.3C46.9962 14.0784 46.8787 13.9304 46.7079 13.7596C46.6563 13.7078 46.6047 13.6559 46.5516 13.6025C46.4667 13.5181 46.4667 13.5181 46.38 13.4321C46.3205 13.3724 46.2609 13.3127 46.1995 13.2511C46.0362 13.0877 45.8727 12.9245 45.709 12.7616C45.5379 12.591 45.3671 12.4201 45.1963 12.2493C44.9096 11.9626 44.6226 11.6763 44.3354 11.39C44.003 11.0587 43.671 10.727 43.3391 10.3951C43.0202 10.0761 42.701 9.75728 42.3817 9.43858C42.2457 9.30277 42.1097 9.16691 41.9737 9.03101C41.7843 8.84165 41.5946 8.65259 41.4048 8.46356C41.3481 8.40678 41.2913 8.35 41.2328 8.29149C41.1815 8.24041 41.1301 8.18932 41.0771 8.13669C41.0098 8.06954 41.0098 8.06954 40.9411 8.00104C40.7261 7.80434 40.644 8.02288 40.4717 8.19475Z" fill="#2ECAA7"/>
</svg>
